####
#
# OBJ File Generated by Meshlab
#
####
# Object viewport1.obj
#
# Vertices: 9
# Faces: 14
#
####
mtllib ./viewport1.obj.mtl

vn -0.884882 -0.145708 -0.442441
v -1.282458 -1.811627 -1.282458
vn -0.415187 0.371616 0.830374
v -1.282458 -1.811627 1.282458
vn 0.884882 -0.145708 0.442441
v 1.282458 -1.811627 1.282458
vn 0.415187 0.371616 -0.830374
v 1.282458 -1.811627 -1.282458
vn 0.000000 1.000000 0.000000
v 0.000000 0.003653 0.000000
vn -0.347357 0.692273 -0.632535
v -0.250805 -0.351354 -0.250805
vn -0.632535 0.692273 0.347357
v -0.250805 -0.351354 0.250805
vn 0.347357 0.692273 0.632535
v 0.250805 -0.351354 0.250805
vn 0.632535 0.692273 -0.347357
v 0.250805 -0.351354 -0.250805
# 9 vertices, 0 vertices normals


usemtl material_0
vt 0.500000 0.000000
vt 0.750000 0.250000
vt 0.500000 0.500000
f 1/1/1 4/2/4 3/3/3
vt 0.250000 0.250000
f 1/1/1 3/3/3 2/4/2
vt 0.250000 0.500000
vt 0.375000 0.500000
vt 0.475554 0.902217
f 1/5/1 2/6/2 7/7/7
vt 0.451108 0.902217
f 1/5/1 7/7/7 6/8/6
vt 0.500000 0.902217
f 2/6/2 3/3/3 8/9/8
f 2/6/2 8/9/8 7/7/7
vt 0.625000 0.500000
vt 0.524446 0.902217
f 3/3/3 4/10/4 9/11/9
f 3/3/3 9/11/9 8/9/8
vt 0.750000 0.500000
vt 0.548892 0.902217
f 4/10/4 1/12/1 6/13/6
f 4/10/4 6/13/6 9/11/9
vt 0.500000 1.000000
f 6/8/6 7/7/7 5/14/5
f 7/7/7 8/9/8 5/14/5
f 8/9/8 9/11/9 5/14/5
f 9/11/9 6/13/6 5/14/5
# 14 faces, 14 coords texture

# End of File
